<?xml version="1.0" encoding="UTF-8" standalone="no"?>
<!DOCTYPE svg PUBLIC "-//W3C//DTD SVG 1.1//EN" "http://www.w3.org/Graphics/SVG/1.1/DTD/svg11.dtd">
<svg width="100%" height="100%" viewBox="0 0 1115 515" version="1.1" xmlns="http://www.w3.org/2000/svg" xmlns:xlink="http://www.w3.org/1999/xlink" xml:space="preserve" xmlns:serif="http://www.serif.com/" style="fill-rule:evenodd;clip-rule:evenodd;stroke-linecap:round;stroke-linejoin:round;stroke-miterlimit:1.5;">
    <g transform="matrix(1,0,0,1,-42.7888,-2.53454)">
        <g transform="matrix(1,0,0,1,-692.33,-1250.28)">
            <path d="M793.118,1297.16L793.118,1360.11L878.068,1360.11L878.068,1404.63L793.118,1404.63L793.118,1501.35L735.119,1501.35L735.119,1252.81L895.126,1252.81L895.126,1297.16L793.118,1297.16Z" style="fill:rgb(250,250,250);fill-rule:nonzero;"/>
        </g>
        <g transform="matrix(1,0,0,1,-692.33,-1250.28)">
            <path d="M1412.85,1455.3L1412.85,1501.35L1263.08,1501.35L1263.08,1252.81L1320.73,1252.81L1320.73,1455.3L1412.85,1455.3Z" style="fill:rgb(250,250,250);fill-rule:nonzero;"/>
        </g>
        <g transform="matrix(1,0,0,1,-692.33,-1250.28)">
            <path d="M1835.89,1252.81L1835.89,1501.35L1785.06,1501.35L1785.06,1358.4C1785.06,1355.11 1785.15,1351.52 1785.32,1347.66C1785.49,1343.79 1785.8,1339.87 1786.26,1335.89L1720.24,1463.65C1718.19,1467.63 1715.43,1470.65 1711.97,1472.69C1708.5,1474.74 1704.55,1475.77 1700.11,1475.77L1692.26,1475.77C1687.83,1475.77 1683.88,1474.74 1680.41,1472.69C1676.94,1470.65 1674.18,1467.63 1672.13,1463.65L1606.12,1335.55C1606.46,1339.64 1606.74,1343.65 1606.97,1347.57C1607.2,1351.5 1607.31,1355.11 1607.31,1358.4L1607.31,1501.35L1556.48,1501.35L1556.48,1252.81L1600.49,1252.81C1602.99,1252.81 1605.18,1252.87 1607.06,1252.98C1608.93,1253.1 1610.61,1253.44 1612.09,1254.01C1613.57,1254.58 1614.9,1255.46 1616.1,1256.65C1617.29,1257.85 1618.46,1259.52 1619.6,1261.68L1683.56,1387.74C1685.84,1392.07 1688.03,1396.56 1690.13,1401.22C1692.24,1405.88 1694.25,1410.66 1696.19,1415.55C1698.12,1410.55 1700.14,1405.65 1702.24,1400.88C1704.35,1396.1 1706.59,1391.55 1708.98,1387.23L1772.78,1261.68C1773.92,1259.52 1775.08,1257.85 1776.28,1256.65C1777.47,1255.46 1778.81,1254.58 1780.29,1254.01C1781.76,1253.44 1783.44,1253.1 1785.32,1252.98C1787.19,1252.87 1789.38,1252.81 1791.88,1252.81L1835.89,1252.81Z" style="fill:rgb(250,250,250);fill-rule:nonzero;"/>
        </g>
        <g transform="matrix(1,5.55112e-17,5.55112e-17,1,-703.93,-986.446)">
            <text x="711.067px" y="1501.35px" style="font-family:'Lato-Light', 'Lato', sans-serif;font-weight:300;font-size:341.167px;fill:rgb(250,250,250);">B</text>
            <text x="926.684px" y="1501.35px" style="font-family:'Lato-Light', 'Lato', sans-serif;font-weight:300;font-size:341.167px;fill:none;">O</text>
            <text x="1191.43px" y="1501.35px" style="font-family:'Lato-Light', 'Lato', sans-serif;font-weight:300;font-size:341.167px;fill:rgb(250,250,250);">ARD</text>
        </g>
        <path d="M357.999,306.923C406.132,306.923 445.209,346.001 445.209,394.134C445.209,442.266 406.132,481.344 357.999,481.344C309.866,481.344 270.789,442.266 270.789,394.134C270.789,346.001 309.866,306.923 357.999,306.923ZM377.832,394.134C377.832,405.08 368.945,413.967 357.999,413.967C347.053,413.967 338.166,405.08 338.166,394.134C338.166,383.187 347.053,374.3 357.999,374.3C368.945,374.3 377.832,383.187 377.832,394.134Z" style="fill:rgb(250,250,250);"/>
        <g transform="matrix(6.12323e-17,1,-1,6.12323e-17,2370.56,-1096.7)">
            <circle cx="1490.83" cy="1953.17" r="19.833" style="fill:rgb(255,205,0);"/>
        </g>
        <g transform="matrix(1,0,0,1,-1132.83,-1618.43)">
            <circle cx="1490.83" cy="1953.17" r="19.833" style="fill:rgb(255,205,0);"/>
        </g>
        <g transform="matrix(1,0,0,1,-1132.83,-1499.64)">
            <circle cx="1490.83" cy="1953.17" r="19.833" style="fill:rgb(255,205,0);"/>
        </g>
        <g transform="matrix(6.12323e-17,1,-1,6.12323e-17,2251.77,-1096.7)">
            <circle cx="1490.83" cy="1953.17" r="19.833" style="fill:rgb(255,205,0);"/>
        </g>
        <g transform="matrix(0.383908,0,0,0.383908,-81.1912,-351.799)">
            <circle cx="1144" cy="1943" r="284" style="fill:none;stroke:rgb(250,250,250);stroke-width:28.94px;"/>
        </g>
        <path d="M408.349,251.075L350.351,289.066L350.351,281.5L293.728,299.816L350.351,251.075L350.351,2.535L408.349,2.535L408.349,251.075Z" style="fill:rgb(250,250,250);fill-rule:nonzero;"/>
        <g transform="matrix(1,0,0,1,1.57097,-6.19533)">
            <path d="M397.559,17.52C397.559,16.129 396.43,15 395.039,15L360.519,15C359.128,15 357.999,16.129 357.999,17.52L357.999,48.48C357.999,49.871 359.128,51 360.519,51L395.039,51C396.43,51 397.559,49.871 397.559,48.48L397.559,17.52Z" style="fill:rgb(255,205,0);"/>
        </g>
        <g transform="matrix(1,0,0,1,1.57097,43.8047)">
            <path d="M397.559,17.52C397.559,16.129 396.43,15 395.039,15L360.519,15C359.128,15 357.999,16.129 357.999,17.52L357.999,48.48C357.999,49.871 359.128,51 360.519,51L395.039,51C396.43,51 397.559,49.871 397.559,48.48L397.559,17.52Z" style="fill:rgb(255,205,0);"/>
        </g>
        <g transform="matrix(1,0,0,1,1.57097,93.8047)">
            <path d="M397.559,17.52C397.559,16.129 396.43,15 395.039,15L360.519,15C359.128,15 357.999,16.129 357.999,17.52L357.999,48.48C357.999,49.871 359.128,51 360.519,51L395.039,51C396.43,51 397.559,49.871 397.559,48.48L397.559,17.52Z" style="fill:rgb(255,205,0);"/>
        </g>
        <g transform="matrix(1,0,0,1,1.57097,143.805)">
            <path d="M397.559,17.52C397.559,16.129 396.43,15 395.039,15L360.519,15C359.128,15 357.999,16.129 357.999,17.52L357.999,48.48C357.999,49.871 359.128,51 360.519,51L395.039,51C396.43,51 397.559,49.871 397.559,48.48L397.559,17.52Z" style="fill:rgb(255,205,0);"/>
        </g>
        <g transform="matrix(1,0,0,1,1.57097,193.805)">
            <path d="M397.559,17.52C397.559,16.129 396.43,15 395.039,15L360.519,15C359.128,15 357.999,16.129 357.999,17.52L357.999,48.48C357.999,49.871 359.128,51 360.519,51L395.039,51C396.43,51 397.559,49.871 397.559,48.48L397.559,17.52Z" style="fill:rgb(255,205,0);"/>
        </g>
        <path d="M357.999,253.001L357.999,253L393.999,253L358,276.581L358,276.581L330,276.581L357.999,253.001Z" style="fill:rgb(255,205,0);"/>
    </g>
</svg>
