<?xml version="1.0" encoding="UTF-8" standalone="no"?>
<!DOCTYPE svg PUBLIC "-//W3C//DTD SVG 1.1//EN" "http://www.w3.org/Graphics/SVG/1.1/DTD/svg11.dtd">
<svg width="100%" height="100%" viewBox="0 0 1115 515" version="1.1" xmlns="http://www.w3.org/2000/svg" xmlns:xlink="http://www.w3.org/1999/xlink" xml:space="preserve" xmlns:serif="http://www.serif.com/" style="fill-rule:evenodd;clip-rule:evenodd;stroke-linecap:round;stroke-linejoin:round;stroke-miterlimit:1.5;">
    <g transform="matrix(1,0,0,1,-42.7888,-2.53454)">
        <g>
            <g transform="matrix(1,0,0,1,-692.33,-1250.28)">
                <path d="M793.118,1297.16L793.118,1360.11L878.068,1360.11L878.068,1404.63L793.118,1404.63L793.118,1501.35L735.119,1501.35L735.119,1252.81L895.126,1252.81L895.126,1297.16L793.118,1297.16Z" style="fill-rule:nonzero;"/>
            </g>
            <g transform="matrix(1,0,0,1,-692.33,-1250.28)">
                <path d="M1412.85,1455.3L1412.85,1501.35L1263.08,1501.35L1263.08,1252.81L1320.73,1252.81L1320.73,1455.3L1412.85,1455.3Z" style="fill-rule:nonzero;"/>
            </g>
            <g transform="matrix(1,0,0,1,-692.33,-1250.28)">
                <path d="M1835.89,1252.81L1835.89,1501.35L1785.06,1501.35L1785.06,1358.4C1785.06,1355.11 1785.15,1351.52 1785.32,1347.66C1785.49,1343.79 1785.8,1339.87 1786.26,1335.89L1720.24,1463.65C1718.19,1467.63 1715.43,1470.65 1711.97,1472.69C1708.5,1474.74 1704.55,1475.77 1700.11,1475.77L1692.26,1475.77C1687.83,1475.77 1683.88,1474.74 1680.41,1472.69C1676.94,1470.65 1674.18,1467.63 1672.13,1463.65L1606.12,1335.55C1606.46,1339.64 1606.74,1343.65 1606.97,1347.57C1607.2,1351.5 1607.31,1355.11 1607.31,1358.4L1607.31,1501.35L1556.48,1501.35L1556.48,1252.81L1600.49,1252.81C1602.99,1252.81 1605.18,1252.87 1607.06,1252.98C1608.93,1253.1 1610.61,1253.44 1612.09,1254.01C1613.57,1254.58 1614.9,1255.46 1616.1,1256.65C1617.29,1257.85 1618.46,1259.52 1619.6,1261.68L1683.56,1387.74C1685.84,1392.07 1688.03,1396.56 1690.13,1401.22C1692.24,1405.88 1694.25,1410.66 1696.19,1415.55C1698.12,1410.55 1700.14,1405.65 1702.24,1400.88C1704.35,1396.1 1706.59,1391.55 1708.98,1387.23L1772.78,1261.68C1773.92,1259.52 1775.08,1257.85 1776.28,1256.65C1777.47,1255.46 1778.81,1254.58 1780.29,1254.01C1781.76,1253.44 1783.44,1253.1 1785.32,1252.98C1787.19,1252.87 1789.38,1252.81 1791.88,1252.81L1835.89,1252.81Z" style="fill-rule:nonzero;"/>
            </g>
            <g transform="matrix(1,5.55112e-17,5.55112e-17,1,-703.93,-986.446)">
                <path d="M824.846,1487.37C845.998,1487.37 862.005,1482.79 872.865,1473.63C883.726,1464.48 889.156,1451.6 889.156,1435C889.156,1427.38 887.706,1420.53 884.806,1414.44C881.906,1408.36 877.727,1403.18 872.268,1398.92C866.81,1394.65 860.1,1391.38 852.139,1389.11C844.179,1386.83 835.138,1385.7 825.017,1385.7L764.289,1385.7L764.289,1487.37L824.846,1487.37ZM764.289,1273.79L764.289,1372.9L816.487,1372.9C827.632,1372.9 837.157,1371.48 845.06,1368.64C852.964,1365.8 859.446,1362.04 864.507,1357.38C869.567,1352.72 873.292,1347.43 875.68,1341.52C878.068,1335.6 879.262,1329.52 879.262,1323.26C879.262,1307 874.116,1294.69 863.824,1286.33C853.533,1277.97 837.64,1273.79 816.146,1273.79L764.289,1273.79ZM816.146,1259.98C829.907,1259.98 841.848,1261.34 851.969,1264.07C862.09,1266.8 870.449,1270.81 877.045,1276.1C883.641,1281.38 888.531,1287.84 891.715,1295.46C894.899,1303.08 896.491,1311.72 896.491,1321.39C896.491,1327.76 895.382,1333.9 893.165,1339.81C890.947,1345.72 887.763,1351.18 883.612,1356.19C879.461,1361.19 874.344,1365.54 868.26,1369.24C862.175,1372.93 855.21,1375.75 847.363,1377.68C866.355,1380.41 880.94,1386.69 891.118,1396.53C901.296,1406.37 906.385,1419.3 906.385,1435.34C906.385,1445.57 904.565,1454.78 900.926,1462.97C897.287,1471.16 891.999,1478.1 885.062,1483.78C878.125,1489.47 869.596,1493.82 859.475,1496.83C849.353,1499.85 837.867,1501.35 825.017,1501.35L746.719,1501.35L746.719,1259.98L816.146,1259.98Z" style="fill-rule:nonzero;"/>
                <path d="M1176.76,1380.58C1176.76,1399.23 1173.97,1416.15 1168.4,1431.33C1162.83,1446.51 1154.98,1459.48 1144.86,1470.22C1134.74,1480.97 1122.6,1489.27 1108.44,1495.13C1094.28,1500.98 1078.67,1503.91 1061.62,1503.91C1044.56,1503.91 1028.98,1500.98 1014.88,1495.13C1000.77,1489.27 988.663,1480.97 978.542,1470.22C968.421,1459.48 960.574,1446.51 955.001,1431.33C949.429,1416.15 946.643,1399.23 946.643,1380.58C946.643,1362.04 949.429,1345.18 955.001,1330C960.574,1314.82 968.421,1301.86 978.542,1291.11C988.663,1280.36 1000.77,1272.03 1014.88,1266.12C1028.98,1260.2 1044.56,1257.25 1061.62,1257.25C1078.67,1257.25 1094.28,1260.18 1108.44,1266.03C1122.6,1271.89 1134.74,1280.22 1144.86,1291.02C1154.98,1301.83 1162.83,1314.82 1168.4,1330C1173.97,1345.18 1176.76,1362.04 1176.76,1380.58ZM1158.68,1380.58C1158.68,1363.75 1156.35,1348.62 1151.68,1335.2C1147.02,1321.79 1140.43,1310.41 1131.9,1301.09C1123.37,1291.76 1113.13,1284.63 1101.19,1279.68C1089.25,1274.73 1076.06,1272.26 1061.62,1272.26C1047.29,1272.26 1034.15,1274.73 1022.21,1279.68C1010.27,1284.63 1000.01,1291.76 991.421,1301.09C982.835,1310.41 976.182,1321.79 971.463,1335.2C966.743,1348.62 964.383,1363.75 964.383,1380.58C964.383,1397.52 966.743,1412.68 971.463,1426.04C976.182,1439.4 982.835,1450.75 991.421,1460.07C1000.01,1469.4 1010.27,1476.5 1022.21,1481.39C1034.15,1486.29 1047.29,1488.73 1061.62,1488.73C1076.06,1488.73 1089.25,1486.29 1101.19,1481.39C1113.13,1476.5 1123.37,1469.4 1131.9,1460.07C1140.43,1450.75 1147.02,1439.4 1151.68,1426.04C1156.35,1412.68 1158.68,1397.52 1158.68,1380.58Z" style="fill:none;"/>
                <path d="M1357.24,1413.67L1308.11,1291.71C1306.4,1287.73 1304.75,1282.95 1303.16,1277.38C1302.48,1280.11 1301.74,1282.69 1300.94,1285.14C1300.15,1287.58 1299.3,1289.83 1298.39,1291.88L1249.26,1413.67L1357.24,1413.67ZM1410.63,1501.35L1397.15,1501.35C1395.56,1501.35 1394.25,1500.93 1393.23,1500.07C1392.21,1499.22 1391.41,1498.11 1390.84,1496.75L1362.53,1426.64L1243.97,1426.64L1215.65,1496.75C1215.2,1498 1214.4,1499.08 1213.27,1499.99C1212.13,1500.9 1210.76,1501.35 1209.17,1501.35L1195.87,1501.35L1294.63,1259.98L1311.86,1259.98L1410.63,1501.35Z" style="fill-rule:nonzero;"/>
                <path d="M1510.08,1379.21C1520.77,1379.21 1530.35,1377.94 1538.82,1375.38C1547.3,1372.82 1554.46,1369.15 1560.32,1364.37C1566.17,1359.6 1570.64,1353.86 1573.71,1347.14C1576.78,1340.44 1578.31,1332.87 1578.31,1324.46C1578.31,1307.29 1572.71,1294.55 1561.51,1286.25C1550.31,1277.94 1533.96,1273.79 1512.47,1273.79L1468.29,1273.79L1468.29,1379.21L1510.08,1379.21ZM1617.21,1501.35L1602.19,1501.35C1600.26,1501.35 1598.64,1501.04 1597.33,1500.41C1596.03,1499.79 1594.8,1498.62 1593.67,1496.92L1516.22,1399C1515.31,1397.75 1514.37,1396.67 1513.41,1395.76C1512.44,1394.85 1511.36,1394.14 1510.17,1393.63C1508.97,1393.12 1507.55,1392.75 1505.9,1392.52C1504.25,1392.29 1502.23,1392.18 1499.85,1392.18L1468.29,1392.18L1468.29,1501.35L1450.72,1501.35L1450.72,1259.98L1512.47,1259.98C1540.22,1259.98 1561,1265.35 1574.82,1276.1C1588.63,1286.84 1595.54,1302.62 1595.54,1323.43C1595.54,1332.65 1593.95,1341.06 1590.77,1348.68C1587.58,1356.3 1583.01,1362.98 1577.03,1368.72C1571.06,1374.47 1563.84,1379.16 1555.37,1382.8C1546.9,1386.44 1537.37,1388.88 1526.8,1390.13C1529.53,1391.84 1531.97,1394.11 1534.13,1396.96L1617.21,1501.35Z" style="fill-rule:nonzero;"/>
                <path d="M1861.14,1380.58C1861.14,1399.23 1858.36,1416 1852.78,1430.9C1847.21,1445.8 1839.36,1458.48 1829.24,1468.94C1819.12,1479.4 1806.98,1487.42 1792.82,1492.99C1778.66,1498.57 1763.06,1501.35 1746,1501.35L1657.81,1501.35L1657.81,1259.98L1746,1259.98C1763.06,1259.98 1778.66,1262.76 1792.82,1268.34C1806.98,1273.91 1819.12,1281.92 1829.24,1292.39C1839.36,1302.85 1847.21,1315.53 1852.78,1330.43C1858.36,1345.33 1861.14,1362.04 1861.14,1380.58ZM1843.06,1380.58C1843.06,1363.75 1840.73,1348.74 1836.07,1335.55C1831.4,1322.35 1824.81,1311.21 1816.28,1302.11C1807.75,1293.01 1797.51,1286.08 1785.57,1281.3C1773.63,1276.52 1760.44,1274.13 1746,1274.13L1675.38,1274.13L1675.38,1487.19L1746,1487.19C1760.44,1487.19 1773.63,1484.81 1785.57,1480.03C1797.51,1475.25 1807.75,1468.32 1816.28,1459.22C1824.81,1450.12 1831.4,1438.98 1836.07,1425.78C1840.73,1412.59 1843.06,1397.52 1843.06,1380.58Z" style="fill-rule:nonzero;"/>
            </g>
            <path d="M357.999,306.923C406.132,306.923 445.209,346.001 445.209,394.134C445.209,442.266 406.132,481.344 357.999,481.344C309.866,481.344 270.789,442.266 270.789,394.134C270.789,346.001 309.866,306.923 357.999,306.923ZM377.832,394.134C377.832,405.08 368.945,413.967 357.999,413.967C347.053,413.967 338.166,405.08 338.166,394.134C338.166,383.187 347.053,374.3 357.999,374.3C368.945,374.3 377.832,383.187 377.832,394.134Z"/>
            <g transform="matrix(6.12323e-17,1,-1,6.12323e-17,2370.56,-1096.7)">
                <circle cx="1490.83" cy="1953.17" r="19.833" style="fill:rgb(255,205,0);"/>
            </g>
            <g transform="matrix(1,0,0,1,-1132.83,-1618.43)">
                <circle cx="1490.83" cy="1953.17" r="19.833" style="fill:rgb(255,205,0);"/>
            </g>
            <g transform="matrix(1,0,0,1,-1132.83,-1499.64)">
                <circle cx="1490.83" cy="1953.17" r="19.833" style="fill:rgb(255,205,0);"/>
            </g>
            <g transform="matrix(6.12323e-17,1,-1,6.12323e-17,2251.77,-1096.7)">
                <circle cx="1490.83" cy="1953.17" r="19.833" style="fill:rgb(255,205,0);"/>
            </g>
            <g transform="matrix(0.383908,0,0,0.383908,-81.1912,-351.799)">
                <circle cx="1144" cy="1943" r="284" style="fill:none;stroke:black;stroke-width:28.94px;"/>
            </g>
            <path d="M408.349,251.075L350.351,289.066L350.351,281.5L293.728,299.816L350.351,251.075L350.351,2.535L408.349,2.535L408.349,251.075Z" style="fill-rule:nonzero;"/>
            <g transform="matrix(1,0,0,1,1.57097,-6.19533)">
                <path d="M397.559,17.52C397.559,16.129 396.43,15 395.039,15L360.519,15C359.128,15 357.999,16.129 357.999,17.52L357.999,48.48C357.999,49.871 359.128,51 360.519,51L395.039,51C396.43,51 397.559,49.871 397.559,48.48L397.559,17.52Z" style="fill:rgb(255,205,0);"/>
            </g>
            <g transform="matrix(1,0,0,1,1.57097,43.8047)">
                <path d="M397.559,17.52C397.559,16.129 396.43,15 395.039,15L360.519,15C359.128,15 357.999,16.129 357.999,17.52L357.999,48.48C357.999,49.871 359.128,51 360.519,51L395.039,51C396.43,51 397.559,49.871 397.559,48.48L397.559,17.52Z" style="fill:rgb(255,205,0);"/>
            </g>
            <g transform="matrix(1,0,0,1,1.57097,93.8047)">
                <path d="M397.559,17.52C397.559,16.129 396.43,15 395.039,15L360.519,15C359.128,15 357.999,16.129 357.999,17.52L357.999,48.48C357.999,49.871 359.128,51 360.519,51L395.039,51C396.43,51 397.559,49.871 397.559,48.48L397.559,17.52Z" style="fill:rgb(255,205,0);"/>
            </g>
            <g transform="matrix(1,0,0,1,1.57097,143.805)">
                <path d="M397.559,17.52C397.559,16.129 396.43,15 395.039,15L360.519,15C359.128,15 357.999,16.129 357.999,17.52L357.999,48.48C357.999,49.871 359.128,51 360.519,51L395.039,51C396.43,51 397.559,49.871 397.559,48.48L397.559,17.52Z" style="fill:rgb(255,205,0);"/>
            </g>
            <g transform="matrix(1,0,0,1,1.57097,193.805)">
                <path d="M397.559,17.52C397.559,16.129 396.43,15 395.039,15L360.519,15C359.128,15 357.999,16.129 357.999,17.52L357.999,48.48C357.999,49.871 359.128,51 360.519,51L395.039,51C396.43,51 397.559,49.871 397.559,48.48L397.559,17.52Z" style="fill:rgb(255,205,0);"/>
            </g>
            <path d="M357.999,253.001L357.999,253L393.999,253L358,276.581L358,276.581L330,276.581L357.999,253.001Z" style="fill:rgb(255,205,0);"/>
        </g>
    </g>
</svg>
